<svg xmlns="http://www.w3.org/2000/svg" viewBox="0 0 445.86 641.74"><defs><style>.cls-1{fill:none;stroke:#231f20;stroke-miterlimit:10;stroke-width:3px;}</style></defs><g id="Layer_6" data-name="Layer 6"><path class="cls-1" d="M143.1,187.51" transform="translate(-83.36 -48.89)"/><path class="cls-1" d="M141.28,221.6c2.39,95.82,23.55,98.81,29.26,98.23.82-.08,18.83-3.06,20.44-66.48,1.89-74.61-27.88-65.84-27.88-65.84s22.66-11.21,74.44-23.77c19.89-4.83-21,167-21,167s-40.31,12.67-55.44-15" transform="translate(-83.36 -48.89)"/></g><g id="Layer_7" data-name="Layer 7"><path class="cls-1" d="M102.47,204.39l-12.92,1.66a2.91,2.91,0,0,1-3.62-.88c-1.66-2-1.17-2.25,0-4.11s8.71-.68,12.13-1.56,6.36-4.5,6.36-4.5-5.47-.3-10.17-6.56,4.7-5,4.7-5,11.73,5.09,14.86,5.09,12.53,8.22,12.53,8.22,7.53,3,20.34-1.91,11.35-5.33,16.15-6,7.92-1,9.58.2,8.42,5,10.37,11.05,5.68,13.41,4.6,17.22,2,4-2.35,5-20.05,2.45-26,2.15-25.24-4.3-26.8-4.79-3.23-2.37-7-1.33c-1.56.43-6.06,1.15-9.88,1.92a68.9,68.9,0,0,1-8.8,1.17c-.1-.09-2.94.21-3.23-1.23s2.25-3.28,2.25-3.28" transform="translate(-83.36 -48.89)"/><path class="cls-1" d="M88.8,206.3s-2.08,2-1,3.76.49,1.08,4.41,1.57c0,0,12.52-.59,14.38-1.18" transform="translate(-83.36 -48.89)"/><path class="cls-1" d="M111.66,216.13c-3.63,1.23-12.7.68-14.63.78-1.33.07-4.93-2-4.93-2s-1.27-2.54.88-3.32" transform="translate(-83.36 -48.89)"/></g><g id="Layer_8" data-name="Layer 8"><path class="cls-1" d="M216.57,330.73V548.24a26.5,26.5,0,0,1-.24,3.56L199.52,676.27s-2.77,12,8.53,12.54S306,689,306,689" transform="translate(-83.36 -48.89)"/></g><g id="Layer_10" data-name="Layer 10"><path class="cls-1" d="M306,167.26s-10.91,1.31-25.78-3.62,7.09-12.55,7.09-12.55l-48.05,12.55s16.08,5.86,33.37,10.48c12.3,3.29,25.22,5.94,33.37,5.4" transform="translate(-83.36 -48.89)"/></g><g id="Layer_11" data-name="Layer 11"><path class="cls-1" d="M272.63,174.12c-.5,21.39,0,96.18,1.07,103.75s4.17,37.83,3.65,42.52,9.91,222.26,9.91,222.26l5.48,134.61v11.86" transform="translate(-83.36 -48.89)"/><path class="cls-1" d="M273,258.86s19.18-1,33-1.34" transform="translate(-83.36 -48.89)"/><path class="cls-1" d="M274.48,284.36A151.39,151.39,0,0,1,306,280" transform="translate(-83.36 -48.89)"/><path class="cls-1" d="M469.34,187.51" transform="translate(-83.36 -48.89)"/><path class="cls-1" d="M471.16,221.6c-2.4,95.82-23.62,98.81-29.34,98.23-.82-.08-18.88-3.06-20.49-66.48-1.9-74.61,27.95-65.84,27.95-65.84s-22.72-11.21-74.64-23.77c-19.95-4.83,21,167,21,167s40.43,12.67,55.6-15" transform="translate(-83.36 -48.89)"/><path class="cls-1" d="M510.07,204.39,523,206.05a2.93,2.93,0,0,0,3.63-.88c1.67-2,1.18-2.25,0-4.11s-8.73-.68-12.16-1.56-6.38-4.5-6.38-4.5,5.5-.3,10.2-6.56-4.7-5-4.7-5-11.78,5.09-14.91,5.09-12.56,8.22-12.56,8.22-7.55,3-20.4-1.91-11.38-5.33-16.19-6-7.94-1-9.61.2-8.43,5-10.39,11.05-5.69,13.41-4.61,17.22-2,4,2.35,5,20.11,2.45,26.09,2.15,25.31-4.3,26.88-4.79,3.23-2.37,7-1.33c1.57.43,6.08,1.15,9.91,1.92a69,69,0,0,0,8.82,1.17c.1-.09,2.95.21,3.24-1.23s-2.25-3.28-2.25-3.28" transform="translate(-83.36 -48.89)"/><path class="cls-1" d="M523.78,206.3s2.09,2,1,3.76-.49,1.08-4.42,1.57c0,0-12.55-.59-14.42-1.18" transform="translate(-83.36 -48.89)"/><path class="cls-1" d="M500.85,216.13c3.64,1.23,12.74.68,14.68.78,1.33.07,4.94-2,4.94-2s1.28-2.54-.88-3.32" transform="translate(-83.36 -48.89)"/><path class="cls-1" d="M395.66,330.73V548.24a26.5,26.5,0,0,0,.24,3.56l16.86,124.47s2.78,12-8.55,12.54S306,689,306,689" transform="translate(-83.36 -48.89)"/><path class="cls-1" d="M306,167.26s10.94,1.31,25.85-3.62-7.11-12.55-7.11-12.55l48.18,12.55s-16.13,5.86-33.46,10.48c-12.34,3.29-25.28,5.94-33.46,5.4" transform="translate(-83.36 -48.89)"/><path class="cls-1" d="M339.46,174.12c.5,21.39,0,96.18-1.07,103.75s-4.18,37.83-3.66,42.52-9.94,222.26-9.94,222.26L319.3,677.26v11.86" transform="translate(-83.36 -48.89)"/><path class="cls-1" d="M339.12,258.86s-19.22-1-33.12-1.34" transform="translate(-83.36 -48.89)"/><path class="cls-1" d="M337.6,284.36A152,152,0,0,0,306,280" transform="translate(-83.36 -48.89)"/><line class="cls-1" x1="241.41" y1="116.73" x2="241.41" y2="79.36"/><path class="cls-1" d="M306,138a30.25,30.25,0,0,0,9.37-1.56c3.93-1.57,10.47-8.09,10.73-11.22,0-.3.41-2.23.92-5,1.16-6.24,2.94-16.69,2.45-21.89-1-11-7.9-19.3-11.65-21.39S306,68.13,306,66.57" transform="translate(-83.36 -48.89)"/><path class="cls-1" d="M326.51,123c5.23-4.43,12.66-9.73,15.28-16.51s1.83-18.52,0-24S335,64,332.11,61.61,319.64,50.13,306,50.39" transform="translate(-83.36 -48.89)"/></g><g id="Layer_12" data-name="Layer 12"><line class="cls-1" x1="203.92" y1="116.73" x2="203.92" y2="79.36"/><path class="cls-1" d="M306,138a30.16,30.16,0,0,1-9.35-1.56c-3.91-1.57-10.43-8.09-10.69-11.22,0-.3-.42-2.23-.93-5-1.15-6.24-2.92-16.69-2.44-21.89,1-11,7.88-19.3,11.62-21.39S306,68.13,306,66.57" transform="translate(-83.36 -48.89)"/><path class="cls-1" d="M285.54,123c-5.21-4.43-12.63-9.73-15.24-16.51s-1.82-18.52,0-24S277.09,64,280,61.61s12.43-11.48,26-11.22" transform="translate(-83.36 -48.89)"/></g></svg>