<?xml version="1.0" encoding="UTF-8" standalone="no"?>
<!-- Created with Inkscape (http://www.inkscape.org/) -->

<svg
   version="1.1"
   id="svg3158"
   width="452.20499"
   height="451.84116"
   viewBox="0 0 452.20499 451.84116"
   sodipodi:docname="favicon.svg"
   inkscape:version="1.1 (c68e22c387, 2021-05-23)"
   xmlns:inkscape="http://www.inkscape.org/namespaces/inkscape"
   xmlns:sodipodi="http://sodipodi.sourceforge.net/DTD/sodipodi-0.dtd"
   xmlns="http://www.w3.org/2000/svg"
   xmlns:svg="http://www.w3.org/2000/svg">
  <defs
     id="defs3162" />
  <sodipodi:namedview
     id="namedview3160"
     pagecolor="#ffffff"
     bordercolor="#999999"
     borderopacity="1"
     inkscape:pageshadow="0"
     inkscape:pageopacity="0"
     inkscape:pagecheckerboard="0"
     showgrid="false"
     inkscape:zoom="2.6455896"
     inkscape:cx="270.63911"
     inkscape:cy="262.13439"
     inkscape:window-width="2560"
     inkscape:window-height="1377"
     inkscape:window-x="-8"
     inkscape:window-y="-8"
     inkscape:window-maximized="1"
     inkscape:current-layer="g3164" />
  <g
     inkscape:groupmode="layer"
     inkscape:label="Image"
     id="g3164"
     transform="translate(12.458694,13.208583)">
    <path
       style="fill:#06417a;stroke:none;stroke-width:1.33333"
       d="M 210.05824,-12.261592 C 203.22358,-8.6100062 198.21958,2.9047938 193.64358,9.0141278 182.24891,24.231861 169.98891,38.746127 157.43291,53.014132 122.10491,93.157602 82.435046,127.17679 41.812906,161.78613 c -13.78013,11.74 -27.62773,23.4 -41.33332985,35.228 -4.64334005,4.00666 -12.93827015,9.024 -12.93827015,15.98 0,6.14 7.3545301,9.7 11.60493015,12.86 13.07479985,9.71733 25.96573985,19.62533 38.66666985,29.828 48.4736,38.936 92.593334,82.08933 131.466674,130.66533 10.85866,13.568 21.34933,27.37466 31.69466,41.33333 3.60267,4.86133 8.156,13.36533 15.50534,10.30267 7.28266,-3.036 12.932,-12.47867 17.89466,-18.30267 11.41334,-13.396 22.94,-26.712 34.48134,-40 17.49466,-20.144 33.94266,-42.528 53.07733,-61.10666 20.88267,-20.27734 44.47866,-38.39334 66.54666,-57.38667 l 40,-34.47867 c 4.41067,-3.784 13.07334,-9.37866 10.932,-16.30933 -1.992,-6.44667 -11.28,-11.26533 -16.26533,-15.252 -13.86933,-11.08933 -27.732,-22.16933 -41.33333,-33.58667 -44.66667,-37.492 -85.016,-78.428128 -122.33733,-123.21333 -11.34934,-13.618799 -22.40934,-27.412532 -33.38267,-41.3322662 -3.65467,-4.635733 -8.97067,-13.0505858 -16.03467,-9.2767858 m 3.75467,60.787054 c 13.36267,0.30067 29.992,17.4584 40,25.25613 35.76267,27.863468 66.24533,59.991198 94.66667,95.232538 9.51199,11.796 30.56533,30.32533 29.18799,46.66666 -1.04,12.33734 -11.90533,23.90267 -19.02,33.33334 -19.50266,25.85066 -42.17333,50.55333 -66.16799,72.22666 -17.37867,15.696 -35.14134,30.336 -54.66667,43.32933 -7.10933,4.73067 -16.28133,12.716 -25.33333,12.24134 -12.916,-0.67734 -28.73334,-17.78267 -38.66667,-25.304 -36.432,-27.584 -70.6592,-57.81333 -98.166664,-94.49333 -7.92241,-10.564 -28.57787,-32.544 -26.33134,-46.66667 1.7836,-11.21067 14.2904,-23.30667 21.06387,-32 20.69347,-26.56 43.656804,-51.132 68.767464,-73.55453 16.83734,-15.034798 34.144,-29.496798 52,-43.312798 6.368,-4.92747 13.956,-13.15067 22.66667,-12.95467 m -4,8.30453 c -14.46667,5.5208 -29.656,21.96414 -41.33333,32.01027 -29.52,25.395198 -58.17467,51.063198 -82.665604,81.507198 -7.79813,9.69333 -29.5396,29.56667 -29.3652,42.66667 0.15186,11.41866 16.60093,28.50133 23.1964,37.33333 26.225874,35.11867 58.203734,64.43733 92.834404,91.132 8.82,6.79866 32.272,31.19733 44,27.672 14.304,-4.30134 29.80266,-18.432 41.33333,-27.60534 31.02667,-24.68399 58.72133,-52.77333 84.10667,-83.19866 8.716,-10.44667 31.32533,-31.49333 28.76533,-46.66667 -2.12134,-12.56266 -19.21067,-27.59066 -27.00533,-37.33333 -26.344,-32.928 -55.08134,-64.63987 -88.53334,-90.507198 -9.29866,-7.19053 -32.752,-31.81173 -45.33333,-27.01027 m 4,33.51747 28,71.999998 h -20 l 2.78133,50.66667 -0.92266,17.09466 -21.85867,0.23867 2.66667,-68 h -20 l 18.58,-40 10.75333,-31.999998 m -32,101.333328 c -17.57067,4.06667 -48.592,18.79067 -22.66667,35.856 2.91334,1.91734 6.06,3.364 9.33334,4.54534 25.46533,9.18666 59.328,8.908 85.33333,2.05733 17.79733,-4.688 41.73333,-18.66533 18.64933,-35.38533 -2.956,-2.14134 -5.85866,-3.38 -9.316,-4.40667 l -1.33333,4 -16,-14.66667 h 24 c 0.63733,4.90667 7.84533,6.21867 12,8.296 11.66267,5.832 24.03067,14.432 18.148,29.03734 -6.52,16.188 -26.73467,21.22666 -42.148,24.25866 -32.75867,6.44667 -70.268,5.73067 -102.66667,-2.444 -12.66,-3.19466 -28.54266,-8.30533 -36.77733,-19.148 -8.208,-10.80666 -0.56267,-24.004 8.77733,-30.852 16.36,-11.99466 40.67734,-20.78933 54.66667,-1.148 m 45.33333,64 2.66667,62.66667 h -32 l 2.66667,-62.66667 z"
       id="path3222" />
    <path
       style="fill:#ffffff;stroke:#ffffff;stroke-width:0.377988;stroke-opacity:0"
       d="m 211.86204,262.28722 c -24.51195,-1.25955 -50.27354,-6.60548 -64.56323,-13.39787 -7.68862,-3.65467 -14.17309,-8.69444 -17.08913,-13.2818 -4.68062,-7.36329 -2.91813,-16.7563 4.67818,-24.9319 4.32232,-4.65193 12.48431,-10.00009 20.18947,-13.22919 13.39147,-5.61214 24.45198,-5.12007 33.16717,1.47558 3.0628,2.31793 5.77467,5.52498 5.05646,5.97976 -0.29001,0.18363 -0.74306,0.33648 -1.00677,0.33967 -1.00163,0.0121 -8.85282,2.73083 -12.52891,4.33857 -8.38832,3.66862 -14.74176,8.57161 -17.02298,13.13675 -2.07677,4.15598 -1.37199,8.36715 2.11186,12.61873 1.82596,2.22835 6.38379,5.63205 10.15409,7.5829 7.57623,3.92011 20.6589,7.24228 34.96385,8.8786 6.65184,0.76089 26.70384,0.64753 33.81561,-0.19116 23.01072,-2.71369 38.59433,-8.23415 46.42776,-16.44696 3.06719,-3.21573 4.24277,-5.86581 4.21436,-9.50031 -0.0246,-3.15554 -0.64645,-4.74015 -3.20514,-8.16818 -2.81182,-3.76717 -10.63037,-9.02365 -14.60393,-9.81836 -1.09826,-0.21965 -1.20207,-0.14224 -1.63833,1.22176 -0.25618,0.80095 -0.59174,1.59428 -0.74568,1.76295 -0.15395,0.16867 -3.66286,-2.79121 -7.79758,-6.5775 -4.13472,-3.7863 -7.58855,-6.94347 -7.67517,-7.01595 -0.0866,-0.0725 5.10126,-0.13005 11.52862,-0.12794 l 11.68611,0.004 0.60767,1.44782 c 0.82961,1.97663 2.62935,3.24285 7.42015,5.22051 12.62635,5.21219 21.03541,12.13718 23.01748,18.95526 2.85101,9.80713 -4.27889,21.37169 -17.14632,27.81101 -6.39463,3.20009 -13.57897,5.44385 -24.29363,7.58719 -19.67454,3.93565 -39.44781,5.36801 -59.72204,4.32621 z"
       id="path4934"
       transform="translate(-12.458694,-13.208583)" />
    <path
       style="fill:#ffffff;stroke:#ffffff;stroke-width:0.377988;stroke-opacity:0"
       d="m 211.86204,262.31643 c -15.74378,-0.88749 -30.22065,-3.01513 -44.03555,-6.47183 -16.13445,-4.03708 -27.06506,-9.15095 -33.83916,-15.83162 -4.7968,-4.73064 -6.68866,-9.01721 -6.31393,-14.30609 0.40342,-5.69394 2.88259,-10.55946 8.02414,-15.74788 3.92462,-3.96039 9.14058,-7.55558 15.65443,-10.79007 14.9118,-7.40455 27.32496,-7.48763 36.89253,-0.2469 2.18297,1.65208 5.7273,5.44207 5.39762,5.77175 -0.0872,0.0872 -1.67905,0.5968 -3.53741,1.1324 -10.57444,3.04769 -19.87707,8.03934 -24.79457,13.30438 -2.44677,2.61971 -3.41893,4.69235 -3.63902,7.75843 -0.16555,2.30624 -0.0664,2.79079 1.02442,5.00656 2.62071,5.32342 9.19958,10.22055 18.21502,13.55876 7.34393,2.7193 18.28126,5.10744 29.06154,6.34552 6.55607,0.75295 26.68315,0.64017 33.6409,-0.1885 22.95837,-2.73436 37.80077,-7.88162 46.0057,-15.95453 3.55936,-3.5021 4.82181,-6.06873 4.82873,-9.81718 0.004,-2.24261 -0.18778,-3.04523 -1.23846,-5.17948 -2.16915,-4.40617 -7.83162,-9.34145 -13.61494,-11.86648 -3.72107,-1.62463 -4.06413,-1.61432 -4.62441,0.13896 -0.24914,0.7796 -0.58003,1.55656 -0.73532,1.72658 -0.2283,0.24993 -4.25989,-3.282 -15.29391,-13.39845 -0.20463,-0.18762 4.67299,-0.32758 11.33963,-0.32539 l 11.69871,0.004 0.60767,1.44782 c 0.83634,1.99268 2.58613,3.20942 7.66601,5.3307 13.93359,5.81846 22.0458,13.1481 23.23757,20.99588 0.8965,5.90338 -1.63036,12.34637 -7.07856,18.04894 -7.77821,8.14136 -20.12526,12.94194 -42.95408,16.7007 -6.39125,1.05232 -13.6198,1.92324 -20.60032,2.482 -6.83982,0.5475 -24.18281,0.75518 -30.99498,0.37117 z"
       id="path5380"
       transform="translate(-12.458694,-13.208583)" />
    <path
       style="fill:#ffffff;stroke:#ffffff;stroke-width:0.377988;stroke-opacity:0"
       d="m 214.50795,242.70109 c 0,-1.59039 2.23756,-58.43797 2.47474,-62.8735 l 0.2375,-4.44135 h -9.86084 c -5.42346,0 -9.86084,-0.12041 -9.86084,-0.26758 0,-0.14716 4.08332,-9.05104 9.07405,-19.7864 l 9.07406,-19.51882 5.06607,-15.08296 c 2.78634,-8.29562 5.18974,-15.39347 5.34088,-15.773 0.19086,-0.47926 4.39997,9.91606 13.7795,34.03153 7.42759,19.09687 13.62437,35.0986 13.77062,35.55941 l 0.26592,0.83782 h -9.85315 -9.85315 v 0.91741 c 0,0.50458 0.60984,11.77334 1.35519,25.04168 1.2984,23.11313 1.33633,24.48865 0.90485,32.81798 -0.24769,4.78154 -0.47973,8.72697 -0.51563,8.76762 -0.0359,0.0406 -4.86555,0.19457 -10.73253,0.34206 l -10.66724,0.26816 z"
       id="path5419"
       transform="translate(-12.458694,-13.208583)" />
    <path
       style="fill:#ffffff;stroke:#ffffff;stroke-width:0.377988;stroke-opacity:0"
       d="m 220.55575,388.99561 c -6.50207,-2.09217 -12.93451,-6.43967 -25.51416,-17.24427 -3.32629,-2.85694 -8.17398,-6.82443 -10.77264,-8.81665 -36.0594,-27.6443 -62.93154,-52.59563 -84.745595,-78.68803 -1.65115,-1.97498 -5.865815,-7.24791 -9.365923,-11.71761 -3.500109,-4.46971 -8.520545,-10.84825 -11.156526,-14.17454 -11.312154,-14.27458 -17.199937,-25.37183 -17.199937,-32.41834 0,-6.26678 4.056007,-13.74449 13.579736,-25.03577 1.928842,-2.28683 6.932402,-8.41022 11.119023,-13.60755 15.217612,-18.89136 25.597482,-30.48544 41.995502,-46.90805 19.88946,-19.9193 37.66428,-35.54836 68.76579,-60.464444 16.99384,-13.614136 17.97178,-14.341566 21.71149,-16.149846 2.54289,-1.229575 3.67191,-1.553108 5.92423,-1.697653 7.41614,-0.475939 16.2407,4.161536 30.05588,15.794933 3.22235,2.71345 9.51584,7.881835 13.98554,11.4853 31.76972,25.61267 58.28156,52.19753 87.49311,87.73409 3.07605,3.74208 8.56894,10.15748 12.20643,14.25645 10.704,12.06196 14.81667,17.5322 18.06135,24.02329 4.1534,8.309 4.20153,15.20092 0.16631,23.81187 -2.66583,5.68874 -7.44862,12.31339 -23.92455,33.13796 -27.83442,35.18101 -65.43093,71.28686 -101.03404,97.02815 -9.10999,6.58658 -21.37182,14.954 -24.71956,16.86851 -5.79549,3.31433 -11.83683,4.32496 -16.63146,2.7822 z m 10.04919,-7.03805 c 5.88053,-1.97403 13.81896,-6.59672 22.10682,-12.87318 4.97007,-3.76388 22.65434,-18.08714 29.81056,-24.14488 23.13954,-19.58761 44.59286,-41.17381 67.64458,-68.0636 4.27728,-4.98943 9.31236,-10.77264 11.18907,-12.85158 10.49389,-11.62463 15.44009,-18.19602 18.92006,-25.13668 3.24504,-6.4721 3.93198,-11.61403 2.25709,-16.89492 -2.08997,-6.58966 -6.60279,-12.83798 -19.41497,-26.88144 -2.52552,-2.76823 -7.17678,-8.21125 -10.33612,-12.0956 -29.75567,-36.58401 -54.65867,-61.99267 -82.41371,-84.087105 -2.96947,-2.363844 -8.20786,-6.751844 -11.64087,-9.751112 -14.18656,-12.394145 -22.40828,-17.847368 -29.36184,-19.474832 -3.59433,-0.841245 -5.93327,-0.489338 -10.20872,1.535962 -7.77287,3.682045 -13.92809,8.399889 -29.40712,22.539917 -3.3263,3.038552 -7.49361,6.7886 -9.2607,8.33345 -30.38106,26.56 -35.35551,31.114 -50.29496,46.04392 -12.26326,12.25544 -19.32181,19.90902 -28.25077,30.63225 -3.029377,3.63813 -7.73782,9.08115 -10.463207,12.0956 -14.034113,15.52262 -19.540649,23.09204 -21.785108,29.94634 -2.765354,8.44504 0.896963,16.58455 15.523289,34.50054 2.206368,2.70261 6.381155,7.97251 9.277304,11.7109 11.631812,15.01446 20.430992,24.97979 34.578902,39.16158 15.62672,15.66415 27.27848,26.00803 47.44568,42.12005 6.0289,4.81662 13.83468,11.26235 17.34618,14.32386 11.66357,10.16889 17.23311,14.3005 23.47648,17.41536 6.23333,3.10985 8.62538,3.45169 13.26208,1.8952 z"
       id="path5458"
       transform="translate(-12.458694,-13.208583)" />
    <path
       style="fill:#ffffff;stroke:#ffffff;stroke-width:0.377988;stroke-opacity:0"
       d="m 220.55575,388.97493 c -6.73843,-2.23524 -12.42643,-6.03722 -24.62351,-16.4589 -3.40036,-2.9054 -10.17969,-8.40076 -15.06518,-12.2119 -34.58327,-26.9782 -57.87282,-48.54967 -78.64631,-72.84458 -3.37211,-3.94372 -7.218695,-8.74846 -18.913108,-23.62422 -11.973615,-15.23091 -14.702273,-19.16633 -17.97114,-25.91897 -6.423201,-13.26869 -4.513993,-19.70272 11.525552,-38.84113 2.643328,-3.15402 7.253921,-8.79628 10.245763,-12.53836 29.621863,-37.04985 63.870463,-70.19241 110.170303,-106.612441 2.89324,-2.275856 7.23065,-5.748667 9.63868,-7.717358 6.16968,-5.044019 9.25468,-7.186174 12.49735,-8.677887 6.42722,-2.956687 13.36971,-1.528926 22.96655,4.723197 4.32511,2.817707 6.47133,4.475761 14.65085,11.318457 3.74208,3.130486 9.01501,7.463629 11.71762,9.629207 15.45339,12.382665 26.62506,22.331675 40.96159,36.478655 16.38094,16.16436 27.81465,28.68942 44.77122,49.04464 5.14895,6.18096 11.75492,13.91899 14.67995,17.19563 20.71303,23.20294 24.38424,33.00333 17.70343,47.25982 -2.17669,4.64493 -5.90231,10.03913 -15.33267,22.19962 -18.1322,23.38157 -29.34773,36.22208 -47.57277,54.46543 -20.64482,20.66557 -40.41551,37.75381 -61.25855,52.94711 -8.85862,6.45739 -23.1726,16.16755 -26.2834,17.82985 -5.69682,3.04417 -11.2828,3.87319 -15.86222,2.35413 z m 10.12277,-7.04207 c 5.47481,-1.83784 13.96975,-6.74174 21.37293,-12.33804 5.45141,-4.12089 26.31011,-21.0844 33.13108,-26.94412 21.80453,-18.73173 42.31566,-39.43359 63.43098,-64.02086 3.68215,-4.2876 9.50626,-10.95442 12.94247,-14.81515 11.05883,-12.42511 15.771,-18.79001 19.07565,-25.7662 3.94121,-8.31997 3.72289,-14.29567 -0.80477,-22.02859 -3.19731,-5.46075 -6.12284,-9.14985 -15.43724,-19.46636 -3.28473,-3.63813 -7.42871,-8.40077 -9.20885,-10.58365 -32.17759,-39.45757 -54.91881,-62.9092 -82.8159,-85.40294 C 268.2973,97.287227 261.99264,92.0168 258.35451,88.854893 243.30301,75.7736 234.34097,70.154724 227.18684,69.313897 c -2.70166,-0.317527 -6.09955,0.740483 -10.85251,3.379181 -6.72159,3.731626 -12.73155,8.468128 -25.4506,20.057865 -4.15787,3.78869 -13.68315,12.254127 -21.16731,18.812087 -32.96415,28.8847 -49.98458,45.88562 -70.322601,70.24198 -2.687497,3.21849 -5.917486,6.96057 -7.177753,8.31573 -15.094591,16.23117 -21.916415,26.11532 -23.229884,33.65781 -1.197787,6.8782 2.883893,14.82603 16.115853,31.3807 3.730997,4.6679 8.559452,10.78336 10.7299,13.58992 21.522625,27.83041 47.055825,52.85793 83.413355,81.76134 4.61719,3.67056 11.00778,8.95717 14.2013,11.74802 11.50368,10.05317 18.84951,15.49086 24.64451,18.24289 5.49006,2.60722 8.17519,2.91257 12.58742,1.43144 z"
       id="path5497"
       transform="translate(-12.458694,-13.208583)" />
    <path
       style="fill:#ffffff;stroke:#ffffff;stroke-width:0.377988;stroke-opacity:0"
       d="m 220.55575,388.97833 c -6.78326,-2.239 -11.81582,-5.61334 -25.10326,-16.83176 -3.96807,-3.3502 -9.93619,-8.20383 -13.26248,-10.78584 -24.29369,-18.85786 -41.5567,-33.81505 -58.02665,-50.27603 -13.66963,-13.66218 -21.86278,-23.0013 -36.128135,-41.18133 -2.682877,-3.41911 -6.889005,-8.77708 -9.346952,-11.90661 -11.232463,-14.30148 -16.887304,-25.06053 -16.887304,-32.13023 0,-6.17506 4.127094,-13.73069 13.843664,-25.34412 2.261184,-2.70261 6.988489,-8.48582 10.505121,-12.85158 26.041046,-32.3289 49.489096,-56.19908 84.322646,-85.84066 9.95576,-8.471856 39.03414,-31.944426 43.87196,-35.41422 8.82111,-6.326685 16.22028,-5.824826 28.13467,1.908272 4.28193,2.779208 6.3544,4.38392 15.49749,11.999709 4.26181,3.549898 10.47026,8.645347 13.79655,11.323222 13.61348,10.959707 24.0099,20.285417 37.93768,34.030487 17.26089,17.03447 27.83331,28.68058 48.90037,53.86646 4.08653,4.88549 9.83684,11.60422 12.77847,14.93051 18.41361,20.82145 21.92915,30.93303 15.51408,44.62243 -2.11112,4.50501 -5.28341,9.1994 -12.88571,19.06848 -19.79142,25.69259 -31.00657,38.59779 -50.44331,58.04476 -24.59511,24.60807 -46.78044,43.15325 -73.86603,61.74617 -11.314,7.7665 -14.34659,9.55794 -18.30524,10.81347 -3.61966,1.14801 -7.76004,1.22756 -10.84763,0.20841 z m 9.55607,-6.83486 c 6.00242,-1.85395 15.52986,-7.56344 25.19258,-15.0971 7.83079,-6.10536 26.86484,-21.73056 32.79652,-26.92291 21.69497,-18.99088 40.45724,-38.15223 62.67053,-64.00353 3.57273,-4.15787 8.921,-10.28126 11.88503,-13.60756 11.8676,-13.31803 17.01906,-20.82273 19.71911,-28.72705 0.72493,-2.12222 0.89999,-3.39405 0.88449,-6.42579 -0.0171,-3.33705 -0.16062,-4.13591 -1.22532,-6.81886 -2.33357,-5.88046 -7.12228,-12.38122 -17.67631,-23.99596 -2.93248,-3.2272 -8.60585,-9.86089 -12.60749,-14.74152 -29.83998,-36.39457 -53.36365,-60.4038 -80.35588,-82.014522 -2.70261,-2.163786 -8.40077,-6.921762 -12.66258,-10.57328 -11.89781,-10.194044 -17.06523,-14.01606 -22.87125,-16.916453 -8.41586,-4.20413 -12.12417,-3.990602 -20.91546,1.204327 -6.26334,3.701118 -12.45001,8.660439 -24.06206,19.288472 -2.91051,2.663865 -11.31372,10.123046 -18.67381,16.575956 -34.55866,30.29908 -51.06156,46.63013 -70.73344,69.99683 -3.67978,4.37094 -8.541546,9.98692 -10.803919,12.47997 -9.115845,10.0453 -13.678592,15.70972 -17.297483,21.47395 -8.032712,12.79462 -6.157994,19.4303 11.861121,41.98317 3.014451,3.77291 7.813354,9.83814 10.664228,13.47829 22.725063,29.01657 46.795733,52.61956 83.265683,81.64786 4.57365,3.6404 10.95219,8.91519 14.17454,11.72175 11.79984,10.27728 18.42506,15.20369 24.3802,18.12875 5.40852,2.65656 8.38048,3.10393 12.39097,1.86521 z"
       id="path5536"
       transform="translate(-12.458694,-13.208583)" />
    <path
       style="fill:#ffffff;stroke:#ffffff;stroke-width:0.377988;stroke-opacity:0"
       d="m 211.86204,262.28722 c -24.59078,-1.2636 -50.23332,-6.58636 -64.57768,-13.40474 -10.84899,-5.1569 -17.74864,-11.80923 -19.34024,-18.64697 -0.97101,-4.17162 0.21089,-9.81243 3.075,-14.67594 3.16952,-5.38212 11.20012,-11.85572 20.33285,-16.39063 14.9118,-7.40455 27.32496,-7.48763 36.89253,-0.2469 2.18297,1.65208 5.7273,5.44207 5.39762,5.77175 -0.0872,0.0872 -1.65449,0.59207 -3.48283,1.12191 -10.59409,3.07004 -20.06287,8.16078 -24.80505,13.33604 -5.22229,5.69921 -4.98503,11.61407 0.69474,17.31948 6.94081,6.97215 19.49901,11.77134 38.06431,14.54652 14.53513,2.17274 34.29497,1.78567 50.59367,-0.99106 12.73077,-2.16888 23.02875,-5.81406 30.45105,-10.77875 8.43374,-5.64124 11.25092,-12.0892 8.08736,-18.51033 -1.2969,-2.63235 -4.90386,-6.5281 -8.24273,-8.9027 -2.17495,-1.54682 -6.62864,-3.73122 -8.37365,-4.10703 -1.12488,-0.24226 -1.21776,-0.17576 -1.65211,1.18276 -0.25313,0.7917 -0.58619,1.57747 -0.74015,1.74615 -0.21437,0.23486 -8.27434,-6.80893 -15.11275,-13.20738 -0.46946,-0.43926 1.22324,-0.51639 11.15064,-0.50812 l 11.70411,0.01 0.69493,1.50706 c 0.88258,1.91399 2.86308,3.27837 7.64546,5.26698 9.61962,4.00004 17.09142,9.24598 20.55362,14.43066 4.89014,7.32304 3.22218,16.5646 -4.43646,24.58081 -6.9424,7.26653 -17.37744,11.79843 -35.41919,15.38242 -18.8643,3.7474 -39.30946,5.18804 -59.15505,4.16826 z"
       id="path5575"
       transform="translate(-12.458694,-13.208583)" />
    <path
       style="fill:#ffffff;stroke:#ffffff;stroke-width:0.377988;stroke-opacity:0"
       d="m 214.50833,242.6321 c 7.2e-4,-1.69317 2.22966,-58.33157 2.47161,-62.80451 l 0.24025,-4.44135 h -9.86084 c -5.42346,0 -9.86084,-0.11705 -9.86084,-0.26012 0,-0.14306 4.10857,-9.1117 9.13015,-19.93031 l 9.13014,-19.6702 5.00125,-14.93904 c 2.75069,-8.21647 5.12884,-15.24956 5.28479,-15.62909 0.19976,-0.48616 4.27378,9.56917 13.78823,34.03153 7.42759,19.09687 13.62437,35.0986 13.77062,35.55941 l 0.26592,0.83782 h -9.85315 -9.85315 v 0.84192 c 0,0.46305 0.60958,11.73181 1.35462,25.04167 1.29703,23.17113 1.3355,24.56929 0.90485,32.89348 -0.24738,4.78154 -0.47916,8.72697 -0.51506,8.76762 -0.0359,0.0406 -4.86555,0.19457 -10.73253,0.34206 l -10.66724,0.26816 z"
       id="path5614"
       transform="translate(-12.458694,-13.208583)" />
    <path
       style="fill:#ffffff;stroke:#ffffff;stroke-width:0.377988;stroke-opacity:0"
       d="m 210.56801,328.5657 c 0.24332,-3.66913 2.42799,-55.74154 2.42799,-57.87192 v -1.56662 h 13.22957 c 10.33126,0 13.22973,0.10351 13.23031,0.47248 0.002,1.26092 2.26581,53.94104 2.47707,57.64311 l 0.24267,4.25236 h -15.90093 -15.90094 z"
       id="path5666"
       transform="translate(-12.458694,-13.208583)" />
    <path
       style="fill:#ffffff;stroke:#ffffff;stroke-width:0.377988;stroke-opacity:0"
       d="m 210.57589,328.37671 c 0.25811,-4.25854 2.42011,-55.82948 2.42011,-57.72765 v -1.5219 h 13.22957 c 10.33126,0 13.22973,0.10351 13.23031,0.47248 0.002,1.26092 2.26581,53.94104 2.47707,57.64311 l 0.24267,4.25236 h -15.89437 -15.89436 z"
       id="path5705"
       transform="translate(-12.458694,-13.208583)" />
    <path
       style="fill:#ffffff;stroke:#ffffff;stroke-width:0.377988;stroke-opacity:0"
       d="m 210.55582,328.37671 c 0.24123,-3.57977 2.4399,-55.69039 2.44007,-57.8321 l 1.1e-4,-1.41745 h 13.22957 c 10.33023,0 13.23015,0.10354 13.23224,0.47248 0.001,0.25987 0.59638,14.25013 1.32203,31.08948 0.72564,16.83935 1.31976,30.65952 1.32028,30.71149 5.3e-4,0.052 -7.14403,0.0945 -15.87676,0.0945 h -15.87768 z"
       id="path5744"
       transform="translate(-12.458694,-13.208583)" />
  </g>
</svg>
